<svg width="16" height="16" viewBox="0 0 16 16" fill="none" xmlns="http://www.w3.org/2000/svg">
<mask id="mask0_222_1409" style="mask-type:luminance" maskUnits="userSpaceOnUse" x="1" y="1" width="14" height="14">
<path d="M13 2H3C2.44772 2 2 2.44772 2 3V13C2 13.5523 2.44772 14 3 14H13C13.5523 14 14 13.5523 14 13V3C14 2.44772 13.5523 2 13 2Z" fill="white" stroke="white" stroke-linecap="round" stroke-linejoin="round"/>
<path d="M7.00004 5.66667H4.33337V10.3333H6.83337M4.33337 8H6.83337M8.66671 6.33334V10.3333V8.16667C8.66671 7.76885 8.82474 7.38732 9.10605 7.10601C9.38735 6.82471 9.76888 6.66667 10.1667 6.66667C10.5645 6.66667 10.9461 6.82471 11.2274 7.10601C11.5087 7.38732 11.6667 7.76885 11.6667 8.16667V10.3333" stroke="black" stroke-linecap="round" stroke-linejoin="round"/>
</mask>
<g mask="url(#mask0_222_1409)">
<path d="M0 0H16V16H0V0Z" fill="url(#paint0_linear_222_1409)"/>
</g>
<defs>
<linearGradient id="paint0_linear_222_1409" x1="-0.426829" y1="7.3179" x2="21.9654" y2="5.19937" gradientUnits="userSpaceOnUse">
<stop stop-color="#4DC274"/>
<stop offset="1" stop-color="#BEE8CC"/>
</linearGradient>
</defs>
</svg>
